<svg width="24" height="26" viewBox="0 0 24 26" fill="none" xmlns="http://www.w3.org/2000/svg">
<path d="M15.7947 3.13707L15.7947 6.7535L9.38372 8.39734L9.38372 4.7809L15.7947 3.13707Z" fill="#01369D" stroke="#01369D" stroke-width="0.164384"/>
<path d="M23.6851 15.7946L23.6851 19.4111L9.05492 23.1919L9.05492 19.4111L23.6851 15.7946Z" fill="#F95B3D" stroke="#F5775F" stroke-width="0.164384"/>
<path d="M15.6301 10.37L15.6301 13.9864L0.999992 17.7672L0.999993 13.9864L15.6301 10.37Z" fill="#01369D" stroke="#01369D" stroke-width="0.164384"/>
<path d="M6.42456 20.0685L6.42456 23.6849L0.999905 25L0.999905 21.3836L6.42456 20.0685Z" fill="#FEB7C7" stroke="#FEB7C7" stroke-width="0.164384"/>
<path d="M23.6851 8.3976L23.6851 12.1784L18.9179 13.3291L18.9179 9.54828L23.6851 8.3976Z" fill="#FEB7C7" stroke="#FEB7C7" stroke-width="0.164384"/>
<path d="M23.6851 1.00001L23.6851 4.78083L18.9179 5.93152L18.9179 2.1507L23.6851 1.00001Z" fill="#F95B3D" stroke="#F5775F" stroke-width="0.164384"/>
<path d="M6.09619 5.60248L6.09619 9.3833L1.0003 10.6984L1.0003 6.91754L6.09619 5.60248Z" fill="#FEB7C7" stroke="#FEB7C7" stroke-width="0.164384"/>
</svg>
